<svg xmlns="http://www.w3.org/2000/svg" viewBox="0 0 62.3 88.11"><defs><style>.cls-1{fill:#31b98b;stroke:#fff;stroke-miterlimit:10;stroke-width:2px;}</style></defs><title>Almond</title><g id="Layer_2" data-name="Layer 2"><g id="Layer_10" data-name="Layer 10"><path class="cls-1" d="M9.46,33.36C17.94,14.27,33.39,5,41.4,1.17c-6.71.24-13,5.53-14.78,7.09a66.51,66.51,0,0,0-17.49,20c-4,7-9.67,17-7.75,29.89A36.68,36.68,0,0,0,5,69.63,63.21,63.21,0,0,1,9.46,33.36Z"/><path class="cls-1" d="M12.79,39.16C20,17.87,35.51,6.26,43.82,1.3a12.32,12.32,0,0,0-2.42-.13C33.39,5,17.94,14.27,9.46,33.36A63.21,63.21,0,0,0,5,69.63,31.25,31.25,0,0,0,11.24,78,70,70,0,0,1,12.79,39.16Z"/><path class="cls-1" d="M52.52,70.48a58.88,58.88,0,0,0,8.78-21A96.06,96.06,0,0,0,59.57,33.2a60.49,60.49,0,0,1-5,24.23,63.93,63.93,0,0,1-25.79,29c.46,0,.93.08,1.41.09A24.62,24.62,0,0,0,38,85.41,58.67,58.67,0,0,0,52.52,70.48Z"/><path class="cls-1" d="M54.55,57.43a60.49,60.49,0,0,0,5-24.23c-.38-2.09-.78-4.07-1.14-5.89C57.7,23.67,57,20,56,16.53A96.79,96.79,0,0,1,45.56,58.88,95.92,95.92,0,0,1,25,85.83a25.42,25.42,0,0,0,3.74.59A63.93,63.93,0,0,0,54.55,57.43Z"/><path class="cls-1" d="M52.52,70.48A58.67,58.67,0,0,1,38,85.41,33.37,33.37,0,0,0,52.3,76.18c7-7.59,9.05-17.27,9-26.67A58.88,58.88,0,0,1,52.52,70.48Z"/><path class="cls-1" d="M15.4,50.9C20.89,24.71,38,8.6,46.27,2c-.32-.13-.63-.27-1-.38a11.14,11.14,0,0,0-1.47-.34c-8.31,5-23.85,16.57-31,37.86A70,70,0,0,0,11.24,78c.28.26.55.54.85.8A35.38,35.38,0,0,0,14.84,81,81.41,81.41,0,0,1,15.4,50.9Z"/><path class="cls-1" d="M45.56,58.88A96.79,96.79,0,0,0,56,16.53,39.94,39.94,0,0,0,53.17,9a193.74,193.74,0,0,1-12.68,43,194.46,194.46,0,0,1-18,33,24.1,24.1,0,0,0,2.57.76A95.92,95.92,0,0,0,45.56,58.88Z"/><path class="cls-1" d="M50.47,5A13.17,13.17,0,0,0,48.81,3.5C40,11.9,23.32,30.58,18.16,58.88a95.59,95.59,0,0,0-1.34,23.47A30.16,30.16,0,0,0,20,84.05,141.29,141.29,0,0,1,50.47,5Z"/><path class="cls-1" d="M18.16,58.88C23.32,30.58,40,11.9,48.81,3.5A11.48,11.48,0,0,0,46.27,2C38,8.6,20.89,24.71,15.4,50.9A81.41,81.41,0,0,0,14.84,81q.88.66,2,1.35A95.59,95.59,0,0,1,18.16,58.88Z"/><path class="cls-1" d="M50.53,5.08,50.47,5A141.29,141.29,0,0,0,20,84.05l.1,0Q27.15,67,34.11,49.16,42.83,26.75,50.53,5.08Z"/><path class="cls-1" d="M53.17,9a18.58,18.58,0,0,0-2.64-4Q42.79,26.74,34.11,49.16,27.15,67,20.05,84.09c.76.35,1.55.68,2.4,1a194.46,194.46,0,0,0,18-33A193.74,193.74,0,0,0,53.17,9Z"/></g></g></svg>