<svg xmlns="http://www.w3.org/2000/svg" viewBox="0 0 73.47 83.35"><defs><style>.cls-1{fill:#31b98b;stroke:#fff;stroke-miterlimit:10;stroke-width:2px;}</style></defs><title>Egg</title><g id="Layer_2" data-name="Layer 2"><g id="Layer_7" data-name="Layer 7"><path class="cls-1" d="M69.25,51c2-6.93,5.91-20.7.41-35-1.52-3.93-4-10.13-10.14-13.18a20,20,0,0,0-9-1.81c-1.88,0-7.6.05-16.78,4.65A65.68,65.68,0,0,0,15.18,19.59c-5.87,6.34-11.4,12.3-13.38,22C1.19,44.61-1,56.11,6,66.83c5.55,8.52,13.7,11.7,17.14,13a32.54,32.54,0,0,0,18.71,1.9C52,79.53,58,72.61,60.58,69.46,65.74,63.26,67.45,57.28,69.25,51ZM23.37,68.56a18.24,18.24,0,1,1,24.87-6.88A18.25,18.25,0,0,1,23.37,68.56Z"/></g></g></svg>