<svg xmlns="http://www.w3.org/2000/svg" viewBox="0 0 63.25 76.92"><defs><style>.cls-1{fill:#31b98b;stroke:#fff;stroke-miterlimit:10;stroke-width:0.75px;}</style></defs><title>Oat</title><g id="Layer_2" data-name="Layer 2"><g id="Layer_6" data-name="Layer 6"><path class="cls-1" d="M60.67,27C59,22,56.18,17.27,52.08,10.33c-1.76-3-3.43-5.6-4.88-7.78a87.15,87.15,0,0,1-8.64,31.16,85,85,0,0,1-9.32,14.8,98.8,98.8,0,0,0,9.69-23.93A99.24,99.24,0,0,0,42.07.68C39.28,2.45,35.84,4.7,32,7.4c-6.83,4.8-11.76,8.26-17.18,13.52C7.36,28.16,3.63,31.78,1.66,38.1,1.14,39.76-1.88,50,3.68,60c3.85,7,9.74,10.08,13.14,11.89,3.63,1.92,11.81,6.26,21.74,4C49.3,73.49,55,65,56.83,62.21,67.13,46.8,61.28,28.74,60.67,27Z"/></g></g></svg>